<?xml version="1.0" encoding="UTF-8" standalone="no" ?>
<!DOCTYPE svg PUBLIC "-//W3C//DTD SVG 1.1//EN" "http://www.w3.org/Graphics/SVG/1.1/DTD/svg11.dtd">
<svg xmlns="http://www.w3.org/2000/svg" xmlns:xlink="http://www.w3.org/1999/xlink" version="1.1" width="500" height="500" viewBox="0 0 500 500" xml:space="preserve">
<desc>Created with Fabric.js 4.6.0</desc>
<defs>
</defs>
<g transform="matrix(1.01 0 0 1.01 106.1 250)" id="A2goShxi-oDpF-m-YuR5I"  >
<path style="stroke: none; stroke-width: 1; stroke-dasharray: none; stroke-linecap: butt; stroke-dashoffset: 0; stroke-linejoin: miter; stroke-miterlimit: 4; fill: rgb(84,184,98); fill-rule: nonzero; opacity: 1;" vector-effect="non-scaling-stroke"  transform=" translate(0, 0)" d="M -89.16 40.625 L -89.16 40.625 L -89.16 44.727000000000004 C -89.16 59.831 -87.142 73.926 -83.106 87.012 C -79.06933 100.098 -73.405 111.45867 -66.113 121.094 L -66.113 121.094 C -58.82167 130.72933 -50.00033 138.28133 -39.649 143.75 C -29.297 149.21867 -17.741 151.953 -4.981000000000002 151.953 L -4.981000000000002 151.953 C 8.040329999999999 151.953 19.43367 149.73967 29.198999999999998 145.31300000000002 C 38.964999999999996 140.88567 47.36333 134.37500000000003 54.394 125.78100000000002 L 54.394 125.78100000000002 L 55.957 148.04700000000003 L 89.16 148.04700000000003 L 89.16 -151.95299999999997 L 53.026999999999994 -151.95299999999997 L 53.026999999999994 -42.38299999999998 C 46.126329999999996 -50.455669999999984 37.955999999999996 -56.60799999999998 28.515999999999995 -60.83999999999998 C 19.075329999999994 -65.07132999999999 8.039999999999996 -67.18699999999998 -4.590000000000007 -67.18699999999998 L -4.590000000000007 -67.18699999999998 C -17.480670000000007 -67.18699999999998 -29.134330000000006 -64.51799999999999 -39.551 -59.179999999999986 C -49.96767 -53.841329999999985 -58.82167 -46.41932999999999 -66.113 -36.91399999999999 L -66.113 -36.91399999999999 C -73.535 -27.408669999999987 -79.23167 -16.047999999999988 -83.203 -2.8319999999999865 C -87.17433 10.384000000000013 -89.16 24.869670000000013 -89.16 40.625000000000014 z M -53.027 44.727 L -53.027 44.727 L -53.027 40.625 C -53.027 30.33833 -51.92033 20.54033 -49.707 11.231000000000002 C -47.49367 1.9210000000000012 -44.04333 -6.31467 -39.356 -13.475999999999999 L -39.356 -13.475999999999999 C -34.79867 -20.50733 -28.906670000000002 -26.10633 -21.680000000000003 -30.273 C -14.453330000000003 -34.43967 -5.762000000000004 -36.522999999999996 4.393999999999998 -36.522999999999996 L 4.393999999999998 -36.522999999999996 C 16.24333 -36.522999999999996 26.139329999999998 -33.75633 34.081999999999994 -28.222999999999995 C 42.02466999999999 -22.688999999999997 48.33966999999999 -15.624999999999995 53.026999999999994 -7.030999999999995 L 53.026999999999994 -7.030999999999995 L 53.026999999999994 91.016 C 48.33966999999999 100.26067 42.02466999999999 107.61733000000001 34.081999999999994 113.08600000000001 C 26.139329999999994 118.55467000000002 16.113329999999994 121.28900000000002 4.003999999999994 121.28900000000002 L 4.003999999999994 121.28900000000002 C -6.022000000000006 121.28900000000002 -14.615670000000005 119.23833000000002 -21.777000000000005 115.13700000000001 C -28.939000000000004 111.03500000000001 -34.79867 105.46867000000002 -39.35600000000001 98.43800000000002 L -39.35600000000001 98.43800000000002 C -44.04333000000001 91.40667000000002 -47.49367000000001 83.26867000000001 -49.70700000000001 74.02400000000002 C -51.92033000000001 64.77867000000002 -53.02700000000001 55.01300000000002 -53.02700000000001 44.72700000000002 z" stroke-linecap="round" />
</g>
<g transform="matrix(0.82 0 0 0.66 248.52 313.11)" id="k4E8OkkL6bAQaP2kXiSOW"  >
<path style="stroke: none; stroke-width: 1; stroke-dasharray: none; stroke-linecap: butt; stroke-dashoffset: 0; stroke-linejoin: miter; stroke-miterlimit: 4; fill: rgb(84,184,98); fill-rule: nonzero; opacity: 1;" vector-effect="non-scaling-stroke"  transform=" translate(0, 0)" d="M 85.81754 -137.41476 L 1.0862999999999943 -4.187250000000006 L -85.62154000000001 -137.41476 L -126.83254000000001 -137.41476 L -16.296700000000016 31.35974999999999 L -15.710700000000015 137.41475 L 17.883299999999984 137.41475 L 18.469299999999983 31.35974999999999 L 126.83254 -137.41476 z" stroke-linecap="round" />
</g>
<g transform="matrix(1.01 0 0 1.01 393.61 250)" id="ZbCrTa5_6pHamSDEooMW3"  >
<path style="stroke: none; stroke-width: 1; stroke-dasharray: none; stroke-linecap: butt; stroke-dashoffset: 0; stroke-linejoin: miter; stroke-miterlimit: 4; fill: rgb(84,184,98); fill-rule: nonzero; opacity: 1;" vector-effect="non-scaling-stroke"  transform=" translate(0, 0)" d="M 89.453 44.727 L 89.453 44.727 L 89.453 40.625 C 89.453 29.55767 88.54167 19.04333 86.71900000000001 9.082 C 84.89567000000001 -0.8786699999999996 82.22633 -9.96067 78.71100000000001 -18.163999999999998 L 78.71100000000001 -18.163999999999998 C 75.32567000000002 -25.455329999999996 71.41933000000002 -32.06333 66.99200000000002 -37.988 C 62.56533000000002 -43.91267 57.55233000000002 -48.958330000000004 51.95300000000002 -53.125 L 51.95300000000002 -53.125 C 45.70300000000002 -57.55167 38.737000000000016 -61.002 31.055000000000017 -63.476 C 23.37233000000002 -65.95 14.973670000000016 -67.187 5.859000000000016 -67.187 L 5.859000000000016 -67.187 C -1.4323299999999843 -67.187 -8.202999999999983 -66.471 -14.452999999999985 -65.039 C -20.702999999999985 -63.60633 -26.432329999999986 -61.523 -31.640999999999984 -58.789 L -31.640999999999984 -58.789 C -35.80766999999999 -56.575 -39.713669999999986 -53.93833 -43.35899999999998 -50.879000000000005 C -47.00499999999998 -47.819 -50.32532999999998 -44.401 -53.31999999999998 -40.62500000000001 L -53.31999999999998 -40.62500000000001 L -53.31999999999998 -151.953 L -89.45299999999997 -151.953 L -89.45299999999997 148.047 L -56.24999999999997 148.047 L -54.49199999999997 124.024 C -52.14799999999997 127.01867 -49.67399999999997 129.75300000000001 -47.06999999999997 132.227 C -44.46599999999997 134.701 -41.73166999999997 136.97967 -38.866999999999976 139.06300000000002 L -38.866999999999976 139.06300000000002 C -32.87766999999997 143.22967000000003 -26.139329999999976 146.41967000000002 -18.651999999999976 148.633 C -11.165329999999976 150.84633000000002 -2.8646699999999754 151.953 6.250000000000025 151.953 L 6.250000000000025 151.953 C 14.192670000000025 151.953 21.582000000000026 150.97667 28.418000000000024 149.024 C 35.254000000000026 147.07067 41.53667000000002 144.33633 47.26600000000002 140.821 L 47.26600000000002 140.821 C 55.20867000000002 135.74233 62.01200000000002 129.32933 67.67600000000002 121.582 C 73.34000000000002 113.83466999999999 77.92967000000002 105.07833 81.44500000000002 95.31299999999999 L 81.44500000000002 95.31299999999999 C 84.04967000000002 87.89099999999999 86.03533000000002 79.91566999999999 87.40200000000002 71.38699999999999 C 88.76933000000001 62.85832999999999 89.45300000000002 53.97166999999999 89.45300000000002 44.72699999999999 z M 53.32 40.625 L 53.32 40.625 L 53.32 44.727000000000004 C 53.32 50.977000000000004 52.92967 57.09667 52.149 63.086000000000006 C 51.367670000000004 69.07600000000001 50.13067 74.67500000000001 48.438 79.88300000000001 L 48.438 79.88300000000001 C 46.35467 86.78433000000001 43.555 93.03433000000001 40.039 98.63300000000001 C 36.52367 104.23233 32.16167 108.85467000000001 26.953000000000003 112.50000000000001 L 26.953000000000003 112.50000000000001 C 23.047000000000004 115.36467000000002 18.620000000000005 117.54567000000002 13.672000000000002 119.04300000000002 C 8.724000000000002 120.54033000000003 3.2553300000000025 121.28900000000002 -2.7339999999999964 121.28900000000002 L -2.7339999999999964 121.28900000000002 C -8.983999999999996 121.28900000000002 -14.713329999999996 120.47533000000001 -19.921999999999997 118.84800000000001 C -25.129999999999995 117.22067000000001 -29.81733 114.90933000000001 -33.983999999999995 111.91400000000002 L -33.983999999999995 111.91400000000002 C -38.15066999999999 108.91933000000002 -41.82899999999999 105.43633000000001 -45.01899999999999 101.46500000000002 C -48.20966999999999 97.49367000000002 -50.97666999999999 93.16433000000002 -53.31999999999999 88.47700000000002 L -53.31999999999999 88.47700000000002 L -53.31999999999999 -3.9059999999999775 C -51.106669999999994 -8.593329999999977 -48.404999999999994 -12.922669999999977 -45.21499999999999 -16.893999999999977 C -42.02499999999999 -20.86532999999998 -38.34666999999999 -24.348329999999976 -34.17999999999999 -27.342999999999975 L -34.17999999999999 -27.342999999999975 C -30.14332999999999 -30.207669999999975 -25.520669999999992 -32.45399999999997 -20.31199999999999 -34.08199999999997 C -15.10399999999999 -35.70932999999997 -9.374999999999991 -36.522999999999975 -3.1249999999999893 -36.522999999999975 L -3.1249999999999893 -36.522999999999975 C 2.6043300000000107 -36.522999999999975 7.812670000000011 -35.87199999999997 12.50000000000001 -34.56999999999997 C 17.18733000000001 -33.26799999999997 21.41900000000001 -31.444999999999972 25.19500000000001 -29.10099999999997 L 25.19500000000001 -29.10099999999997 C 30.66433000000001 -25.84566999999997 35.28700000000001 -21.353669999999973 39.06300000000001 -15.62499999999997 C 42.83900000000001 -9.89566999999997 45.89867000000001 -3.58032999999997 48.24200000000001 3.3210000000000317 L 48.24200000000001 3.3210000000000317 C 49.93467000000001 8.919670000000032 51.20433000000001 14.876670000000031 52.05100000000001 21.19200000000003 C 52.897000000000006 27.506670000000028 53.32000000000001 33.98433000000003 53.32000000000001 40.62500000000003 z" stroke-linecap="round" />
</g>
</svg>